#!OML:ASF H:\Male1\Project 1\Capture day 1\Session 1\Male1.ASF
:FULLY-SPECIFIED
:DEGREES
577
root -18.5535 14.7693 -11.5381 -704.994 -37.2421 -23.7498
lowerback 10.7809 2.87234 9.1819
upperback 6.93684 4.43123 0.863487
thorax 1.93083 2.4566 -4.60145
lowerneck -1.28425 11.0244 17.5349
upperneck 3.01699 15.3017 -19.6192
head 4.05091 7.48691 -8.01958
rclavicle 1.20066e-013 -4.45278e-014
rhumerus -58.2299 13.8098 -88.5689
rradius 106.589
rwrist -28.6441
rhand -30.6463 20.805
rfingers 7.12502
rthumb -3.94156 -9.1383
lclavicle 1.20066e-013 -4.45278e-014
lhumerus -73.9954 -4.61348 76.722
lradius 80.2145
lwrist 24.5092
lhand -36.6086 11.6788
lfingers 7.12502
lthumb -9.69701 41.4356
rfemur 4.0438 -5.7661 33.3165
rtibia 36.4391
rfoot -8.2051 -16.6433
rtoes -39.7814
lfemur -33.0286 -7.24279 -19.9562
ltibia 51.9039
lfoot -19.7847 10.0092
ltoes 1.94968
578
root -18.9287 14.8061 -11.1918 -705.702 -35.8019 -23.3992
lowerback 10.4075 2.84538 9.08118
upperback 6.96497 4.35383 0.977411
thorax 2.13275 2.42399 -4.39582
lowerneck -1.49896 11.0399 17.5523
upperneck 3.25692 15.2896 -19.18
head 4.11641 7.47515 -7.86534
rclavicle -7.07673e-014 1.27222e-014
rhumerus -58.8702 13.7553 -88.2333
rradius 107.275
rwrist -29.1027
rhand -29.992 20.8918
rfingers 7.12502
rthumb -3.30972 -9.06227
lclavicle -7.07673e-014 1.27222e-014
lhumerus -75.0226 -3.12419 75.4349
lradius 80.1343
lwrist 24.9783
lhand -35.7595 12.2491
lfingers 7.12502
lthumb -8.87772 42.0423
rfemur 4.50347 -6.65946 32.4699
rtibia 39.0501
rfoot -4.87029 -13.6236
rtoes -38.4256
lfemur -31.3846 -7.54533 -20.7838
ltibia 45.8029
lfoot -19.4316 10.1146
ltoes 3.03141
579
root -19.2965 14.8105 -10.844 -706.607 -34.4984 -22.9666
lowerback 10.1929 2.7927 8.86385
upperback 7.02961 4.24642 1.07091
thorax 2.27447 2.3702 -4.15533
lowerneck -1.71649 11.0885 17.5861
upperneck 3.48336 15.3216 -18.7805
head 4.19196 7.48541 -7.72135
rclavicle 0 2.8625e-014
rhumerus -59.6036 13.7501 -88.023
rradius 107.895
rwrist -29.848
rhand -29.4395 20.7013
rfingers 7.12502
rthumb -2.77613 -9.26041
lclavicle 0 2.8625e-014
lhumerus -75.9262 -1.5482 74.1116
lradius 80.0614
lwrist 26.0189
lhand -34.5226 13.076
lfingers 7.12502
lthumb -7.68397 42.9164
rfemur 4.46328 -7.25246 31.3889
rtibia 42.7112
rfoot -2.75469 -11.3084
rtoes -35.9533
lfemur -29.272 -7.93497 -21.6472
ltibia 40.5921
lfoot -18.4937 10.284
ltoes 4.66867
580
root -19.658 14.7807 -10.4979 -707.715 -33.3481 -22.3757
lowerback 10.1248 2.737 8.42987
upperback 7.11785 4.13211 1.12784
thorax 2.34467 2.30289 -3.84225
lowerneck -1.87295 11.1684 17.654
upperneck 3.64504 15.4014 -18.4641
head 4.2573 7.5226 -7.60796
rclavicle -4.29375e-014 9.54166e-015
rhumerus -60.4102 13.8177 -87.9331
rradius 108.473
rwrist -30.7527
rhand -29.0478 20.2929
rfingers 7.12502
rthumb -2.39785 -9.67335
lclavicle -4.29375e-014 9.54166e-015
lhumerus -76.672 0.0268654 72.8176
lradius 79.9599
lwrist 27.5724
lhand -33.2434 14.2413
lfingers 7.12502
lthumb -6.44924 44.1231
rfemur 3.98025 -7.42885 30.1222
rtibia 47.1345
rfoot -1.9978 -10.6291
rtoes -33.3152
lfemur -26.8747 -8.33165 -22.6303
ltibia 36.6297
lfoot -17.1312 10.2925
ltoes 8.32327
581
root -20.0104 14.7184 -10.1562 -708.881 -32.2843 -21.77
lowerback 10.1966 2.67092 7.94388
upperback 7.1931 4.01454 1.15305
thorax 2.32432 2.22844 -3.54256
lowerneck -1.89823 11.2708 17.8022
upperneck 3.69385 15.5248 -18.276
head 4.29318 7.58789 -7.55169
rclavicle -3.4191e-014 -1.59028e-014
rhumerus -61.2516 13.9002 -87.9683
rradius 108.928
rwrist -31.5283
rhand -28.8268 20.0151
rfingers 7.12502
rthumb -2.18446 -9.95348
lclavicle -3.4191e-014 -1.59028e-014
lhumerus -77.2161 1.40235 71.6837
lradius 79.8464
lwrist 29.5986
lhand -32.2962 15.5572
lfingers 7.12502
lthumb -5.53467 45.4649
rfemur 3.0481 -7.3066 28.8311
rtibia 52.0219
rfoot -2.56236 -11.9169
rtoes -31.3038
lfemur -24.4442 -8.59969 -23.6408
ltibia 34.187
lfoot -15.949 9.93968
ltoes 14.1474
582
root -20.353 14.6256 -9.82074 -710.01 -31.2438 -21.1782
lowerback 10.3741 2.58317 7.48266
upperback 7.22786 3.88169 1.1236
thorax 2.21037 2.14444 -3.31971
lowerneck -1.73742 11.3919 18.0612
upperneck 3.58967 15.6929 -18.242
head 4.28374 7.68438 -7.56884
rclavicle -1.59028e-014 1.27222e-014
rhumerus -62.0666 13.9348 -88.1612
rradius 109.142
rwrist -31.9098
rhand -28.7457 19.9136
rfingers 7.12502
rthumb -2.10608 -10.0558
lclavicle -1.59028e-014 1.27222e-014
lhumerus -77.4233 2.50535 70.719
lradius 79.579
lwrist 31.4715
lhand -31.6459 16.734
lfingers 7.12502
lthumb -4.90683 46.6571
rfemur 1.57933 -6.89233 27.5962
rtibia 57.1332
rfoot -4.14243 -14.8884
rtoes -29.3654
lfemur -22.2417 -8.85068 -24.6399
ltibia 33.2745
lfoot -15.1516 9.46152
ltoes 19.9348
583
root -20.6836 14.5094 -9.49403 -711.094 -30.1842 -20.4096
lowerback 10.5921 2.48435 6.9276
upperback 7.21454 3.73205 0.980302
thorax 2.0247 2.04893 -3.16504
lowerneck -1.42247 11.5202 18.3688
upperneck 3.33266 15.8852 -18.3111
head 4.22165 7.80032 -7.63446
rclavicle -6.75868e-014 -4.77083e-014
rhumerus -62.7607 13.8002 -88.4935
rradius 108.946
rwrist -31.6693
rhand -28.7573 20.0673
rfingers 7.12502
rthumb -2.11728 -9.90193
lclavicle -6.75868e-014 -4.77083e-014
lhumerus -77.0569 3.15339 70.0581
lradius 79.0011
lwrist 32.8298
lhand -31.2563 17.7519
lfingers 7.12502
lthumb -4.53063 47.6835
rfemur -0.545918 -6.17069 26.3108
rtibia 62.2268
rfoot -6.22608 -18.545
rtoes -27.6701
lfemur -20.4631 -9.2809 -25.7628
ltibia 33.7185
lfoot -15.1206 8.8863
ltoes 25.3834
